<svg width="26px" height="27px" viewBox="0 0 26 27" version="1.1" xmlns="http://www.w3.org/2000/svg" xmlns:xlink="http://www.w3.org/1999/xlink">
      <defs>
        <linearGradient x1="50%" y1="100%" x2="50%" y2="-2.48949813e-15%" id="linearGradient-1">
          <stop stop-color="#86B2E6" offset="0%"></stop>
          <stop stop-color="#277CAE" offset="100%"></stop>
        </linearGradient>
      </defs>
      <g id="Page-1" stroke="none" stroke-width="1" fill="none" fill-rule="evenodd" stroke-linecap="round" stroke-linejoin="round">
        <g id="places-page" transform="translate(-86.000000, -850.000000)" stroke="url(#linearGradient-1)" stroke-width="2">
          <g id="Group-2" transform="translate(-1.000000, 836.000000)">
            <g id="Group">
              <g id="BottomMenu">
                <g id="Explore" transform="translate(88.000000, 15.000000)">
                  <path d="M12,14 C14.208,14 16,12.432 16,10.5 C16,8.568 14.208,7 12,7 C9.792,7 8,8.568 8,10.5 C8,12.432 9.792,14 12,14 Z" id="Stroke-178"></path>
                  <path d="M24,10.7142857 C24,19.6428571 14,25 12,25 C10,25 0,19.6428571 0,10.7142857 C0,4.79821429 5.374,0 12,0 C18.626,0 24,4.79821429 24,10.7142857 Z" id="Stroke-179"></path>
                </g>
              </g>
            </g>
          </g>
        </g>
      </g>
    </svg>