<svg width="24px" height="26px" viewBox="0 0 24 26" version="1.1" xmlns="http://www.w3.org/2000/svg" xmlns:xlink="http://www.w3.org/1999/xlink">
      <g id="Page-1" stroke="none" stroke-width="1" fill="none" fill-rule="evenodd">
        <g id="places-page" transform="translate(-299.000000, -850.000000)" fill="#7E8184" fill-rule="nonzero">
          <g id="Group-2" transform="translate(-1.000000, 836.000000)">
            <g id="Group">
              <g id="calendar-check" transform="translate(300.000000, 14.000000)">
                <path d="M21.4285714,3.25 L18.8571429,3.25 L18.8571429,0.609375 C18.8571429,0.272847656 18.5693036,0 18.2142857,0 L16.0714286,0 C15.7164107,0 15.4285714,0.272847656 15.4285714,0.609375 L15.4285714,3.25 L8.57142857,3.25 L8.57142857,0.609375 C8.57142857,0.272847656 8.28358929,0 7.92857143,0 L5.78571429,0 C5.43069643,0 5.14285714,0.272847656 5.14285714,0.609375 L5.14285714,3.25 L2.57142857,3.25 C1.15125,3.25 0,4.34128906 0,5.6875 L0,23.5625 C0,24.9087109 1.15125,26 2.57142857,26 L21.4285714,26 C22.84875,26 24,24.9087109 24,23.5625 L24,5.6875 C24,4.34128906 22.84875,3.25 21.4285714,3.25 Z M21.1071429,23.5625 L2.89285714,23.5625 C2.71533704,23.5625 2.57142857,23.4260868 2.57142857,23.2578125 L2.57142857,8.125 L21.4285714,8.125 L21.4285714,23.2578125 C21.4285714,23.4260868 21.284663,23.5625 21.1071429,23.5625 Z M18.2759464,13.3732422 L10.65225,20.5419805 C10.4001964,20.7789766 9.99316071,20.7774531 9.74308929,20.5385273 L5.72035714,16.6944375 C5.47033929,16.4555117 5.47194643,16.0696758 5.724,15.8326289 L6.94108929,14.6882227 C7.19314286,14.4512266 7.60017857,14.45275 7.85019643,14.6917266 L10.2129107,16.9495117 L16.1631964,11.3543828 C16.41525,11.1173867 16.8222857,11.1189102 17.0723571,11.3578359 L18.2796429,12.5114844 C18.5296607,12.7504102 18.528,13.1362461 18.2759464,13.3732422 Z" id="Shape"></path>
              </g>
            </g>
          </g>
        </g>
      </g>
    </svg>